<?xml version="1.0" encoding="utf-8"?>
<!-- Generator: Adobe Illustrator 25.2.1, SVG Export Plug-In . SVG Version: 6.00 Build 0)  -->
<svg version="1.1" id="Capa_1" xmlns="http://www.w3.org/2000/svg" xmlns:xlink="http://www.w3.org/1999/xlink" x="0px" y="0px"
	 viewBox="0 0 100 100" style="enable-background:new 0 0 100 100;" xml:space="preserve">
<style type="text/css">
	.st0{fill:#4C4C4C;}
</style>
<g>
	<g>
		<path d="M51.3,94.17L36.33,5.92h8.77l10.59,65.05L65.78,5.92h8.52L59.49,94.17H51.3z"/>
	</g>
	<g>
		<path class="st0" d="M31.44,40.91c0,1.66,0.8,3.01,1.97,3.69c-2.7,0-5.1-2.58-5.1-5.53c0-9.27,18.67-18.06,35.5-18.12
			c16.52-0.06,27.03,6.88,26.72,18.3C90.04,60.07,50.79,83.9,19.1,83.9c-3.69,0-10.81-0.92-10.81-6.45
			c0-6.82,12.96-16.4,26.04-21.01c0,0.06-0.12,0.12-0.37,0.31c-9.95,4.61-22.91,13.7-22.91,20.08c0,2.64,4.24,3.07,6.7,3.07
			c27.39,0,69.1-24.26,69.1-44.53c0-7.86-9.52-12.28-18.55-12.41C50.18,22.73,31.44,34.83,31.44,40.91z M42.74,66.03
			c1.04,0,2.09-0.18,3.56-0.92c-0.25,0.86-3.01,2.7-4.24,2.7c-0.8,0-1.72-0.61-1.72-1.84c0-4.36,11.55-21.8,20.15-31.26
			c1.35-1.54,5.53-6.08,7.99-6.08c0.43,0,0.98,0.12,1.41,0.31c2.76,0.98,4.18,3.75,3.26,3.01c-0.98-0.55-2.33,0.12-3.87,1.35
			c-1.04,0.86-2.15,1.97-4.61,4.55C55.77,47.17,42.74,63.39,42.74,66.03z"/>
	</g>
	<g>
		<path d="M55.99,69l6.58-42.44l1.21-7.77l2-12.88h8.52l-2.19,13.03l-7.54,44.91"/>
	</g>
</g>
</svg>
