<?xml version="1.0" encoding="utf-8"?>
<!-- Generator: Adobe Illustrator 25.2.1, SVG Export Plug-In . SVG Version: 6.00 Build 0)  -->
<svg version="1.1" id="Capa_1" xmlns="http://www.w3.org/2000/svg" xmlns:xlink="http://www.w3.org/1999/xlink" x="0px" y="0px"
	 viewBox="0 0 100 100" style="enable-background:new 0 0 100 100;" xml:space="preserve">
<style type="text/css">
	.st0{fill:#FFFFFF;}
	.st1{fill:#4C4C4C;}
</style>
<path class="st0" d="M78.8,100H21.2C9.5,100,0,90.5,0,78.8V21.2C0,9.5,9.5,0,21.2,0h57.5C90.5,0,100,9.5,100,21.2v57.5
	C100,90.5,90.5,100,78.8,100z"/>
<g>
	<g>
		<path d="M48.1,90L34.6,10.1h7.9L52.1,69l9.1-58.8h7.7L55.5,90L48.1,90L48.1,90z"/>
	</g>
	<g>
		<path class="st1" d="M30.1,41.8c0,1.5,0.7,2.7,1.8,3.3c-2.4,0-4.6-2.3-4.6-5c0-8.4,16.9-16.3,32.1-16.4c15,0,24.5,6.2,24.2,16.6
			c-0.4,18.8-36,40.4-64.6,40.4c-3.3,0-9.8-0.8-9.8-5.8c0-6.2,11.7-14.8,23.6-19c0,0-0.1,0.1-0.3,0.3c-9,4.2-20.7,12.4-20.7,18.2
			c0,2.4,3.8,2.8,6.1,2.8c24.8,0,62.5-22,62.5-40.3c0-7.1-8.6-11.1-16.8-11.2C47.1,25.3,30.1,36.3,30.1,41.8z M40.4,64.5
			c0.9,0,1.9-0.2,3.2-0.8c-0.2,0.8-2.7,2.4-3.8,2.4c-0.7,0-1.6-0.6-1.6-1.7c0-3.9,10.5-19.7,18.2-28.3c1.2-1.4,5-5.5,7.2-5.5
			c0.4,0,0.9,0.1,1.3,0.3c2.5,0.9,3.8,3.4,2.9,2.7c-0.9-0.5-2.1,0.1-3.5,1.2c-0.9,0.8-2,1.8-4.2,4.1C52.2,47.4,40.4,62.1,40.4,64.5z
			"/>
	</g>
	<g>
		<path d="M52.4,67.2l6-38.4l1.1-7l1.8-11.6h7.7l-2,11.8l-6.8,40.6"/>
	</g>
</g>
</svg>
