<?xml version="1.0" encoding="utf-8"?>
<!-- Generator: Adobe Illustrator 25.2.1, SVG Export Plug-In . SVG Version: 6.00 Build 0)  -->
<svg version="1.1" id="Capa_1" xmlns="http://www.w3.org/2000/svg" xmlns:xlink="http://www.w3.org/1999/xlink" x="0px" y="0px"
	 viewBox="0 0 100 100" style="enable-background:new 0 0 100 100;" xml:space="preserve">
<style type="text/css">
	.st0{fill:#FFFFFF;}
	.st1{fill:#4C4C4C;}
</style>
<circle class="st0" cx="50" cy="50" r="50"/>
<g>
	<g>
		<path d="M47.95,85.9L35.78,14.18h7.13l8.61,52.86l8.2-52.86h6.92L54.6,85.9H47.95z"/>
	</g>
	<g>
		<path class="st1" d="M31.81,42.62c0,1.35,0.65,2.45,1.6,3c-2.19,0-4.14-2.1-4.14-4.49c0-7.53,15.17-14.68,28.85-14.73
			c13.43-0.05,21.97,5.59,21.71,14.87c-0.4,16.92-32.3,36.29-58.05,36.29c-3,0-8.79-0.75-8.79-5.24c0-5.54,10.53-13.33,21.16-17.07
			c0,0.05-0.1,0.1-0.3,0.25c-8.09,3.75-18.62,11.13-18.62,16.32c0,2.15,3.45,2.49,5.44,2.49c22.26,0,56.16-19.72,56.16-36.19
			c0-6.39-7.74-9.98-15.08-10.09C47.04,27.85,31.81,37.68,31.81,42.62z M40.99,63.03c0.85,0,1.7-0.15,2.89-0.75
			c-0.2,0.7-2.45,2.19-3.45,2.19c-0.65,0-1.4-0.5-1.4-1.5c0-3.54,9.39-17.72,16.38-25.4c1.1-1.25,4.49-4.94,6.49-4.94
			c0.35,0,0.8,0.1,1.15,0.25c2.24,0.8,3.4,3.05,2.65,2.45c-0.8-0.45-1.89,0.1-3.15,1.1c-0.85,0.7-1.75,1.6-3.75,3.7
			C51.58,47.71,40.99,60.89,40.99,63.03z"/>
	</g>
	<g>
		<path d="M51.76,65.45l5.35-34.49l0.98-6.31l1.63-10.47h6.92l-1.78,10.59l-6.13,36.5"/>
	</g>
</g>
</svg>
